<?xml version="1.0" encoding="UTF-8"?>
<svg version="1.1" xmlns="http://www.w3.org/2000/svg" width="1024" height="467">
<path d="M0 0 C337.92 0 675.84 0 1024 0 C1024 154.11 1024 308.22 1024 467 C686.08 467 348.16 467 0 467 C0 312.89 0 158.78 0 0 Z " fill="#111112" transform="translate(0,0)"/>
<path d="M0 0 C1.16090149 0.00007553 2.32180298 0.00015106 3.5178833 0.00022888 C5.38993439 0.00797081 5.38993439 0.00797081 7.29980469 0.01586914 C8.5815155 0.01728409 9.86322632 0.01869904 11.18377686 0.02015686 C14.58351609 0.02396639 17.98321229 0.03378325 21.38293457 0.04486084 C24.85521858 0.05510865 28.32750978 0.05971656 31.79980469 0.06469727 C38.60711579 0.07487566 45.4143903 0.0936374 52.22167969 0.11352539 C52.25290698 26.27898431 52.17747178 52.44244172 52.0197506 78.60740924 C51.9908954 83.43586427 51.96336363 88.26432689 51.93566895 93.0927887 C51.88344333 102.1650661 51.83009219 111.23733649 51.77629709 120.3096047 C51.71493218 130.66822704 51.65488228 141.02685689 51.59492207 151.38548744 C51.47193185 172.62817519 51.34735776 193.87085338 51.22167969 215.11352539 C45.88732812 215.26336673 40.55423704 215.37143367 35.21826172 215.44311523 C33.40847397 215.47303706 31.59882805 215.51379089 29.78955078 215.56616211 C16.36023886 215.94476626 6.8186371 215.07056506 -3.71582031 205.86352539 C-8.22690763 200.91125594 -11.36476503 194.65497805 -12.77832031 188.11352539 C-13.57753906 188.03875977 -14.37675781 187.96399414 -15.20019531 187.88696289 C-26.41999336 186.54374763 -37.10134008 182.73470192 -44.65722656 173.92211914 C-50.02938313 166.3562281 -53.84916776 159.09856903 -53.90332031 149.67602539 C-54.21868783 143.85002549 -57.1626928 140.66228515 -60.90380859 136.53271484 C-70.09837012 126.3750866 -72.50105108 114.75455506 -72.15332031 101.44555664 C-71.51390546 91.08018521 -66.63246956 82.65779493 -59.77832031 75.11352539 C-59.2871875 74.56567383 -58.79605469 74.01782227 -58.29003906 73.45336914 C-56.96582031 72.05102539 -56.96582031 72.05102539 -54.77832031 70.11352539 C-54.11832031 70.11352539 -53.45832031 70.11352539 -52.77832031 70.11352539 C-52.813125 68.8927832 -52.84792969 67.67204102 -52.88378906 66.41430664 C-53.25375505 48.17070756 -50.34726964 32.49264218 -38.02832031 18.17602539 C-28.29750493 8.16592679 -14.2575023 -0.03099457 0 0 Z " fill="#121211" transform="translate(460.7783203125,14.886474609375)"/>
<path d="M0 0 C7.92 0 15.84 0 24 0 C25.44375 2.908125 26.8875 5.81625 28.375 8.8125 C31.74000387 15.56011692 35.15932707 22.27374732 38.6875 28.9375 C42.82755996 36.76526586 46.94690211 44.60348055 51.03262329 52.45974731 C51.71543914 53.77101192 52.3998099 55.08146808 53.08578491 56.39108276 C54.05212082 58.23651122 55.01299424 60.08468791 55.97265625 61.93359375 C56.53218994 63.00665771 57.09172363 64.07972168 57.66821289 65.18530273 C58.76580933 67.50504415 59.51972962 69.49527489 60 72 C60.66 72 61.32 72 62 72 C62.2165625 71.23042969 62.433125 70.46085937 62.65625 69.66796875 C64.4986086 64.63897246 66.99067899 60.03703207 69.5 55.3125 C70.30630859 53.78109375 70.30630859 53.78109375 71.12890625 52.21875 C72.7487279 49.14376943 74.37414412 46.07179317 76 43 C77.27084479 40.58861805 78.54002542 38.17636777 79.80883789 35.76391602 C80.60146354 34.25745616 81.3949177 32.75143192 82.18920898 31.24584961 C84.55883071 26.75219988 86.91220551 22.2504574 89.25390625 17.7421875 C89.80369141 16.68451172 90.35347656 15.62683594 90.91992188 14.53710938 C91.99965908 12.45851897 93.07783115 10.37911465 94.15429688 8.29882812 C94.88422852 6.89407227 94.88422852 6.89407227 95.62890625 5.4609375 C96.06275635 4.62353027 96.49660645 3.78612305 96.94360352 2.92333984 C98 1 98 1 99 0 C106.59 0 114.18 0 122 0 C122 37.29 122 74.58 122 113 C115.4 113 108.8 113 102 113 C102 88.25 102 63.5 102 38 C101.34 38 100.68 38 100 38 C99.73445312 38.70165283 99.46890625 39.40330566 99.1953125 40.1262207 C97.92063293 43.19081491 96.44516286 46.05626865 94.875 48.98046875 C94.25592773 50.13546875 93.63685547 51.29046875 92.99902344 52.48046875 C92.33284564 53.71623391 91.66650097 54.95190912 91 56.1875 C90.31535972 57.46089988 89.6307899 58.73433765 88.94628906 60.0078125 C84.50596904 68.25790025 80.005129 76.47250659 75.4296875 84.6484375 C72.55108589 89.79240479 69.7133431 94.95874159 66.875 100.125 C66.38870117 101.00994141 65.90240234 101.89488281 65.40136719 102.80664062 C64.26725043 104.87091406 63.13344106 106.9353555 62 109 C58.15541815 107.71847272 57.94080277 106.55679476 56.1015625 103.0234375 C55.54637939 101.97164307 54.99119629 100.91984863 54.41918945 99.83618164 C53.82710693 98.6939917 53.23502441 97.55180176 52.625 96.375 C51.36537299 93.98318535 50.09847759 91.5952405 48.83203125 89.20703125 C48.51157333 88.60062302 48.19111542 87.99421478 47.86094666 87.36943054 C44.77667273 81.54450904 41.56680546 75.794097 38.3125 70.0625 C37.8395752 69.22702637 37.36665039 68.39155273 36.87939453 67.53076172 C31.64545982 58.31995085 26.31433786 49.16456053 21 40 C20.98969254 40.66382187 20.97938507 41.32764374 20.96876526 42.01158142 C20.85944996 49.00511089 20.74497619 55.99854321 20.62768555 62.99194336 C20.58473171 65.59185731 20.54303451 68.19179237 20.50268555 70.79174805 C20.28304759 84.88925074 19.97835655 98.93304157 19 113 C12.73 113 6.46 113 0 113 C0 75.71 0 38.42 0 0 Z " fill="#FDFDFD" transform="translate(547,253)"/>
<path d="M0 0 C1.16090149 0.00007553 2.32180298 0.00015106 3.5178833 0.00022888 C5.38993439 0.00797081 5.38993439 0.00797081 7.29980469 0.01586914 C8.5815155 0.01728409 9.86322632 0.01869904 11.18377686 0.02015686 C14.58351609 0.02396639 17.98321229 0.03378325 21.38293457 0.04486084 C24.85521858 0.05510865 28.32750978 0.05971656 31.79980469 0.06469727 C38.60711579 0.07487566 45.4143903 0.0936374 52.22167969 0.11352539 C52.25290698 26.27898431 52.17747178 52.44244172 52.0197506 78.60740924 C51.9908954 83.43586427 51.96336363 88.26432689 51.93566895 93.0927887 C51.88344333 102.1650661 51.83009219 111.23733649 51.77629709 120.3096047 C51.71493218 130.66822704 51.65488228 141.02685689 51.59492207 151.38548744 C51.47193185 172.62817519 51.34735776 193.87085338 51.22167969 215.11352539 C45.88732812 215.26336673 40.55423704 215.37143367 35.21826172 215.44311523 C33.40847397 215.47303706 31.59882805 215.51379089 29.78955078 215.56616211 C16.36023886 215.94476626 6.8186371 215.07056506 -3.71582031 205.86352539 C-8.22690763 200.91125594 -11.36476503 194.65497805 -12.77832031 188.11352539 C-13.57753906 188.03875977 -14.37675781 187.96399414 -15.20019531 187.88696289 C-26.41999336 186.54374763 -37.10134008 182.73470192 -44.65722656 173.92211914 C-50.02938313 166.3562281 -53.84916776 159.09856903 -53.90332031 149.67602539 C-54.21868783 143.85002549 -57.1626928 140.66228515 -60.90380859 136.53271484 C-70.09837012 126.3750866 -72.50105108 114.75455506 -72.15332031 101.44555664 C-71.51390546 91.08018521 -66.63246956 82.65779493 -59.77832031 75.11352539 C-59.2871875 74.56567383 -58.79605469 74.01782227 -58.29003906 73.45336914 C-56.96582031 72.05102539 -56.96582031 72.05102539 -54.77832031 70.11352539 C-54.11832031 70.11352539 -53.45832031 70.11352539 -52.77832031 70.11352539 C-52.813125 68.8927832 -52.84792969 67.67204102 -52.88378906 66.41430664 C-53.25375505 48.17070756 -50.34726964 32.49264218 -38.02832031 18.17602539 C-28.29750493 8.16592679 -14.2575023 -0.03099457 0 0 Z M-31.96582031 25.96899414 C-41.34128125 37.06194254 -44.08029109 48.7924073 -43.40332031 62.92602539 C-43.04209096 71.99911573 -43.04209096 71.99911573 -45.77832031 76.14086914 C-48.40332031 78.36352539 -48.40332031 78.36352539 -51.16503906 80.28149414 C-55.22644886 83.12873061 -57.42876769 86.81764371 -59.77832031 91.11352539 C-60.11734375 91.72454102 -60.45636719 92.33555664 -60.80566406 92.96508789 C-64.67885648 101.35402999 -63.74734631 111.34509108 -60.84082031 119.86352539 C-57.83469433 126.90940232 -53.07655837 132.75763035 -47.03222656 137.47680664 C-45.0622178 140.04825109 -45.40025059 142.49126178 -45.34082031 145.67602539 C-44.74074062 156.29198072 -41.74413928 163.21753864 -34.31738281 170.91040039 C-26.14296989 178.0032756 -17.30153665 178.94453943 -6.77832031 179.11352539 C-6.42640625 180.11512695 -6.07449219 181.11672852 -5.71191406 182.14868164 C-2.19709952 191.76671196 1.0482133 198.56968304 10.47167969 203.48852539 C21.49019796 208.5570438 26.16453039 206.11352539 42.22167969 206.11352539 C42.22167969 183.67352539 42.22167969 161.23352539 42.22167969 138.11352539 C36.03417969 137.82477539 29.84667969 137.53602539 23.47167969 137.23852539 C20.58144043 137.04734131 20.58144043 137.04734131 17.6328125 136.85229492 C7.80288858 136.42741065 7.80288858 136.42741065 -0.51074219 141.04614258 C-3.14304569 143.91326964 -5.35024564 147.00034842 -7.50158691 150.23724365 C-8.87190614 152.25105871 -10.30290479 154.17634712 -11.82421875 156.07885742 C-12.28423279 156.66265167 -12.74424683 157.24644592 -13.21820068 157.84793091 C-14.77832031 159.11352539 -14.77832031 159.11352539 -16.92388916 159.33053589 C-19.15332031 159.05102539 -19.15332031 159.05102539 -22.77832031 158.11352539 C-22.77832031 156.46352539 -22.77832031 154.81352539 -22.77832031 153.11352539 C-22.04871094 152.88407227 -21.31910156 152.65461914 -20.56738281 152.41821289 C-17.23044093 150.85723447 -15.5534659 149.01807543 -13.15332031 146.23852539 C-12.02023437 144.94301758 -12.02023437 144.94301758 -10.86425781 143.62133789 C-9.09618848 141.4956815 -7.40837929 139.34577177 -5.77832031 137.11352539 C-7.36788315 133.30036061 -9.78592728 130.74074139 -12.65332031 127.80102539 C-13.51699219 126.89739258 -14.38066406 125.99375977 -15.27050781 125.06274414 C-17.52445817 122.88085122 -17.52445817 122.88085122 -19.86816406 123.18774414 C-21.79722777 124.12268913 -23.62739454 125.13624076 -25.46582031 126.23852539 C-30.07065233 128.57952938 -33.8688696 128.69253542 -38.77832031 127.11352539 C-42.5785361 124.9257679 -45.11237606 122.17662021 -46.77832031 118.11352539 C-47.50152798 113.48836006 -47.19045992 109.96950764 -45.15332031 105.73852539 C-41.3487427 101.53346592 -37.88505451 99.96814095 -32.27832031 99.67602539 C-26.90368513 99.86603775 -23.72174843 102.10068913 -20.02832031 105.92602539 C-18.35367792 108.85664958 -17.59362585 111.85230325 -16.77832031 115.11352539 C-16.09769531 115.13415039 -15.41707031 115.15477539 -14.71582031 115.17602539 C-11.03379159 116.35114094 -9.3888924 118.22563516 -6.81738281 121.03149414 C-6.14449219 121.71856445 -5.47160156 122.40563477 -4.77832031 123.11352539 C-4.31674026 123.60694931 -3.85516022 124.10037323 -3.3795929 124.60874939 C0.65783297 128.54559761 3.48484229 129.79649172 9.11338806 129.79330444 C9.95221024 129.76233673 10.79103241 129.73136902 11.65527344 129.69946289 C12.5332106 129.69097321 13.41114777 129.68248352 14.31568909 129.67373657 C17.09814306 129.64035958 19.87761371 129.5651154 22.65917969 129.48852539 C24.55431989 129.45840524 26.44950588 129.43103304 28.34472656 129.40649414 C32.9724291 129.34573656 37.59374797 129.22832021 42.22167969 129.11352539 C42.22167969 121.85352539 42.22167969 114.59352539 42.22167969 107.11352539 C39.42441406 107.1921582 36.62714844 107.27079102 33.74511719 107.35180664 C30.98775636 107.38373028 28.23115641 107.39308686 25.47363281 107.40039062 C23.580374 107.41726029 21.68715787 107.4570138 19.79492188 107.52148438 C10.34868515 107.82886192 2.39554685 108.06978099 -5.01046753 101.57841492 C-7.25792484 99.35802326 -9.37193797 97.06034126 -11.42027283 94.65567017 C-13.30382106 92.51678762 -15.41239741 90.69505463 -17.59082031 88.86352539 C-21.76556227 85.26737241 -21.76556227 85.26737241 -21.93603516 83.21166992 C-21.95359863 82.39811035 -21.97116211 81.58455078 -21.98925781 80.74633789 C-22.01761719 79.86075195 -22.04597656 78.97516602 -22.07519531 78.06274414 C-22.12705715 76.18793875 -22.17139371 74.31290928 -22.20800781 72.43774414 C-22.23894531 71.54958008 -22.26988281 70.66141602 -22.30175781 69.74633789 C-22.33148682 68.52261475 -22.33148682 68.52261475 -22.36181641 67.27416992 C-22.86849672 64.64572868 -23.89171187 63.92686748 -25.77832031 62.11352539 C-25.55501318 58.46617561 -25.39459197 56.72979705 -22.77832031 54.11352539 C-19.21582031 54.36352539 -19.21582031 54.36352539 -15.77832031 55.11352539 C-14.55574963 57.55866676 -14.76144628 58.9041299 -14.92675781 61.62133789 C-16.03290756 73.00756677 -16.03290756 73.00756677 -11.77832031 82.98852539 C-9.86338063 84.6527041 -9.86338063 84.6527041 -7.77832031 86.11352539 C-6.41909164 87.33709209 -5.06492038 88.56629989 -3.71582031 89.80102539 C-2.40589945 90.90825057 -1.09353924 92.01259875 0.22167969 93.11352539 C0.78242188 93.61239258 1.34316406 94.11125977 1.92089844 94.62524414 C7.10037369 99.17848561 10.67194425 99.25207068 17.47167969 99.23852539 C18.73496094 99.24110352 19.99824219 99.24368164 21.29980469 99.24633789 C28.28143686 99.05794464 35.2511073 98.54918616 42.22167969 98.11352539 C42.22167969 68.74352539 42.22167969 39.37352539 42.22167969 9.11352539 C35.06480469 9.03102539 27.90792969 8.94852539 20.53417969 8.86352539 C18.30321533 8.82710937 16.07225098 8.79069336 13.77368164 8.75317383 C-4.98767957 8.57337092 -18.61178203 11.88802232 -31.96582031 25.96899414 Z " fill="#10D09D" transform="translate(460.7783203125,14.886474609375)"/>
<path d="M0 0 C6.6 0 13.2 0 20 0 C20 38.28 20 76.56 20 116 C13.4 116 6.8 116 0 116 C-0.33 112.37 -0.66 108.74 -1 105 C-1.5775 105.86625 -2.155 106.7325 -2.75 107.625 C-7.93801782 113.6442472 -14.77439977 116.88226204 -22.65625 117.515625 C-33.58387235 117.94926939 -42.49227143 116.89384145 -51.1875 109.8125 C-62.00371072 99.49886069 -66.95194852 87.94782735 -67.3125 72.9375 C-67.18247232 60.25257715 -62.32578182 48.66717293 -53.875 39.25 C-45.5801886 31.41910423 -35.51998952 28.59409867 -24.44921875 28.73046875 C-14.42545236 29.51375287 -7.91093663 33.97655975 -1 41 C-0.67 41.33 -0.34 41.66 0 42 C0 28.14 0 14.28 0 0 Z " fill="#FCFCFC" transform="translate(880,250)"/>
<path d="M0 0 C10.28085167 6.98517543 17.11869908 16.63466138 19.875 28.8125 C21.22436444 43.16414789 20.31306178 56.7224385 11.62890625 68.71484375 C4.856831 76.81418542 -2.75191444 81.67392552 -13.125 83.8125 C-23.60353097 84.6829211 -32.16465549 82.94146095 -40.43359375 76.3125 C-42.06302805 74.86745895 -43.60539125 73.37198187 -45.125 71.8125 C-45.62 71.3175 -45.62 71.3175 -46.125 70.8125 C-46.125 85.3325 -46.125 99.8525 -46.125 114.8125 C-52.725 114.8125 -59.325 114.8125 -66.125 114.8125 C-66.125 75.8725 -66.125 36.9325 -66.125 -3.1875 C-60.185 -3.1875 -54.245 -3.1875 -48.125 -3.1875 C-47.795 0.1125 -47.465 3.4125 -47.125 6.8125 C-45.0322569 7.0465529 -45.0322569 7.0465529 -43.71484375 5.421875 C-42.89693359 4.50148438 -42.89693359 4.50148438 -42.0625 3.5625 C-30.94533252 -7.92679024 -13.23469548 -7.63639349 0 0 Z " fill="#FBFBFB" transform="translate(364.125,284.1875)"/>
<path d="M0 0 C63.91355599 0 63.91355599 0 75 11 C81.33907854 18.83715399 84.56729718 26.20530852 84.4375 36.25 C84.42775146 37.08974365 84.41800293 37.9294873 84.40795898 38.79467773 C84.09750209 49.69855538 81.07266547 56.93344951 73.43359375 64.8359375 C65.65901675 71.74944578 56.92971402 74.34127342 46.66015625 74.1953125 C45.9791687 74.19329834 45.29818115 74.19128418 44.59655762 74.18920898 C42.08513524 74.17885029 39.57380989 74.15092882 37.0625 74.125 C31.431875 74.08375 25.80125 74.0425 20 74 C20 86.87 20 99.74 20 113 C13.4 113 6.8 113 0 113 C0 75.71 0 38.42 0 0 Z " fill="#FEFEFE" transform="translate(122,253)"/>
<path d="M0 0 C6.74587936 5.89917434 10.42204269 11.75508166 11.15634155 20.85696411 C11.24455428 24.60895201 11.23577224 28.34880538 11.19140625 32.1015625 C11.18579936 33.47874994 11.18153444 34.85594343 11.17854309 36.23313904 C11.1671801 39.82859302 11.13778875 43.42367374 11.10443115 47.01898193 C11.07354395 50.69945224 11.05999823 54.37998385 11.04492188 58.06054688 C11.01290891 65.26060519 10.96021318 72.46028051 10.8984375 79.66015625 C4.2984375 79.66015625 -2.3015625 79.66015625 -9.1015625 79.66015625 C-8.7715625 76.36015625 -8.4415625 73.06015625 -8.1015625 69.66015625 C-8.7615625 69.66015625 -9.4215625 69.66015625 -10.1015625 69.66015625 C-10.34390625 70.25570312 -10.58625 70.85125 -10.8359375 71.46484375 C-12.34466401 74.08183232 -13.82894929 75.14631569 -16.3515625 76.78515625 C-17.09921875 77.28273438 -17.846875 77.7803125 -18.6171875 78.29296875 C-26.54141742 82.6537871 -35.43912705 82.92646964 -44.17578125 80.97265625 C-51.57262948 78.49672379 -58.4315071 74.88597187 -62.5390625 68.03515625 C-65.9474281 60.67308655 -66.27236889 53.17916808 -63.6015625 45.47265625 C-60.32663232 38.15290002 -54.24980139 33.43051827 -46.8828125 30.50390625 C-34.40627501 26.71888926 -22.03958005 26.25158727 -9.1015625 26.66015625 C-9.88132702 19.8705752 -9.88132702 19.8705752 -13.2890625 14.16015625 C-19.33904639 10.93349818 -25.3274179 9.88279539 -32.1015625 10.66015625 C-37.96962314 12.61617646 -38.11368023 13.68439172 -41.1015625 19.66015625 C-47.7015625 19.66015625 -54.3015625 19.66015625 -61.1015625 19.66015625 C-61.1015625 11.98136583 -58.53317221 7.50029093 -53.4609375 1.82421875 C-39.76704133 -10.78184454 -14.67409421 -11.1010341 0 0 Z " fill="#FCFCFC" transform="translate(274.1015625,286.33984375)"/>
<path d="M0 0 C9.24614931 7.647336 15.72834582 16.35104613 17.75 28.3125 C17.75 33.2625 17.75 38.2125 17.75 43.3125 C-3.04 43.3125 -23.83 43.3125 -45.25 43.3125 C-43.26699885 54.05009422 -43.26699885 54.05009422 -36.63671875 61.62890625 C-30.0147325 65.69852093 -21.3657301 65.45127554 -13.96875 63.8046875 C-10.88771329 62.62902876 -9.2334623 61.29178106 -7.1796875 58.71875 C-2.99917011 55.28515171 0.3315633 55.74644975 5.5625 56 C6.44615234 56.02255859 7.32980469 56.04511719 8.24023438 56.06835938 C10.4108891 56.12702572 12.5806669 56.21670021 14.75 56.3125 C11.78461278 65.9258716 6.52674953 73.21035344 -2.25 78.3125 C-13.38078729 83.36922864 -25.98393541 84.23132744 -37.6875 80.6875 C-48.57274142 76.46007877 -57.74799736 69.30294103 -62.6875 58.5 C-65.3720391 51.89097773 -65.49803179 45.82860891 -65.5625 38.75 C-65.59150391 37.71552734 -65.62050781 36.68105469 -65.65039062 35.61523438 C-65.74575913 23.89958081 -62.21371636 14.89255286 -54.25 6.3125 C-39.91590633 -8.1939475 -17.39647472 -12.15045608 0 0 Z " fill="#FCFCFC" transform="translate(458.25,285.6875)"/>
<path d="M0 0 C8.1394386 5.07593336 12.6905274 10.81248542 15.36929321 20.00018311 C16.5740084 25.73014362 16.36335413 31.48956468 16.29296875 37.3203125 C16.28735977 38.67365036 16.28309584 40.0269944 16.28010559 41.38034058 C16.26875896 44.90838018 16.23938253 48.43603759 16.20599365 51.96392822 C16.17507037 55.57746209 16.16155316 59.1910589 16.14648438 62.8046875 C16.11450054 69.86996117 16.0618187 76.9349151 16 84 C9.73 84 3.46 84 -3 84 C-3.029729 81.74542969 -3.029729 81.74542969 -3.06005859 79.4453125 C-3.13636962 73.84667761 -3.22504757 68.24829399 -3.31738281 62.64990234 C-3.35556737 60.23100765 -3.39043826 57.81205821 -3.421875 55.39306641 C-3.46775422 51.90767914 -3.52571129 48.42266534 -3.5859375 44.9375 C-3.59748871 43.86322754 -3.60903992 42.78895508 -3.62094116 41.68212891 C-3.7856104 33.22515776 -4.36371489 25.76354213 -10 19 C-15.95458584 15.93854332 -22.48703605 16.28614971 -29 17 C-34.75685152 19.05412926 -38.09074991 22.64697984 -41 28 C-41.99824905 30.99474714 -42.15324032 33.07345334 -42.20532227 36.20581055 C-42.22526749 37.26668381 -42.24521271 38.32755707 -42.26576233 39.420578 C-42.28247482 40.56440445 -42.29918732 41.7082309 -42.31640625 42.88671875 C-42.33718735 44.05886429 -42.35796844 45.23100983 -42.37937927 46.43867493 C-42.44483818 50.18822286 -42.50374296 53.93784163 -42.5625 57.6875 C-42.60568868 60.22722091 -42.64930308 62.76693462 -42.69335938 65.30664062 C-42.8005159 71.53768755 -42.90179388 77.76880584 -43 84 C-49.6 84 -56.2 84 -63 84 C-63 55.95 -63 27.9 -63 -1 C-56.73 -1 -50.46 -1 -44 -1 C-43.67 2.3 -43.34 5.6 -43 9 C-41.88625 7.9275 -40.7725 6.855 -39.625 5.75 C-35.16622804 1.82373734 -30.59213249 -0.1525104 -25 -2 C-17.03354676 -4.65548441 -7.54689898 -3.50788758 0 0 Z " fill="#FDFDFC" transform="translate(786,282)"/>
<path d="M0 0 C0 6.6 0 13.2 0 20 C-3.7125 20.309375 -3.7125 20.309375 -7.5 20.625 C-14.34845028 21.39865699 -19.39754527 22.51878531 -24 28 C-27.89604683 35.04750905 -28.59983256 41.77172538 -28.609375 49.6953125 C-28.62591125 50.76876923 -28.64244751 51.84222595 -28.65948486 52.94821167 C-28.70765115 56.34053447 -28.72926643 59.73241002 -28.75 63.125 C-28.77818584 65.44012629 -28.80811688 67.75523203 -28.83984375 70.0703125 C-28.91340194 75.7135048 -28.96316803 81.35645336 -29 87 C-35.6 87 -42.2 87 -49 87 C-49 58.95 -49 30.9 -49 2 C-42.73 2 -36.46 2 -30 2 C-29.67 5.63 -29.34 9.26 -29 13 C-27.948125 11.741875 -26.89625 10.48375 -25.8125 9.1875 C-18.38480984 0.76449936 -11.18326906 0 0 0 Z " fill="#FDFDFD" transform="translate(536,279)"/>
<path d="M0 0 C23.19162433 -0.75807973 43.58900566 4.64964942 60.9453125 20.86328125 C66.66153977 26.80772291 70.44029416 33.47739801 73.8125 40.9375 C74.1027002 41.56914063 74.39290039 42.20078125 74.69189453 42.8515625 C82.40692267 60.80322679 81.03543186 84.04759915 74.21875 102.06494141 C67.37733517 118.9269702 55.64857 130.96143475 38.98046875 138.3359375 C29.85833235 141.85501064 21.24193318 142.13717812 11.5625 142.0625 C10.44939453 142.05798828 9.33628906 142.05347656 8.18945312 142.04882812 C5.45957899 142.03711193 2.72981826 142.02070699 0 142 C0 139.03 0 136.06 0 133 C0.67466309 132.98541748 1.34932617 132.97083496 2.04443359 132.95581055 C5.15514582 132.88050417 8.26487969 132.78412156 11.375 132.6875 C12.43589844 132.66494141 13.49679687 132.64238281 14.58984375 132.61914062 C29.446548 132.11784079 41.79855125 126.88632903 52.64453125 116.609375 C59.85565871 108.62092866 64.33034652 99.35544534 67 89 C67.22429687 88.14277344 67.44859375 87.28554687 67.6796875 86.40234375 C71.33934954 69.78346749 69.77660161 50.30063465 60.8125 35.5546875 C51.77489361 22.81633712 40.48220051 14.48975619 25.08203125 11.41796875 C16.7558886 10.00830513 8.42297524 9.44270133 0 9 C0 6.03 0 3.06 0 0 Z " fill="#10D3A0" transform="translate(525,20)"/>
<path d="M0 0 C5.93778278 3.57616463 9.6756015 8.70150072 12.3125 15.0546875 C12.76038793 18.18918693 12.77734604 21.26749034 12.75 24.4296875 C12.7799707 25.64785156 12.7799707 25.64785156 12.81054688 26.890625 C12.80495459 33.86980206 10.94740705 38.99307486 6.3828125 44.296875 C-0.10114608 49.73923381 -5.28730214 51.62287235 -13.80859375 51.42578125 C-20.61875632 50.54794483 -25.93634904 47.48001958 -30.1875 42.1171875 C-35.73821366 34.25905508 -35.41323537 25.2380312 -34.6875 16.0546875 C-32.91464871 8.66032675 -27.05292635 3.94243634 -20.921875 -0.11328125 C-14.96286886 -2.33228179 -5.93159031 -2.08640241 0 0 Z " fill="#121212" transform="translate(351.6875,298.9453125)"/>
<path d="M0 0 C5.73196177 4.04876665 9.4700724 10.59661988 10.96875 17.390625 C12.00536436 26.14425739 10.25518918 34.44702239 5.28125 41.765625 C0.8678456 47.133279 -4.17527395 49.31700298 -10.96875 50.328125 C-17.53909721 50.74256229 -22.80261927 49.27257984 -27.84375 45.015625 C-28.9265625 43.71625 -28.9265625 43.71625 -30.03125 42.390625 C-30.753125 41.606875 -31.475 40.823125 -32.21875 40.015625 C-37.25578081 32.72061486 -37.08801291 23.28718441 -35.56640625 14.796875 C-33.565605 7.88286357 -29.61127345 2.6425984 -23.40625 -1.046875 C-15.95395953 -4.33842203 -7.17263258 -3.69026749 0 0 Z " fill="#121212" transform="translate(870.03125,299.609375)"/>
<path d="M0 0 C4.62 0 9.24 0 14 0 C20.24968137 14.94293186 26.42085428 29.91345637 32.37588501 44.97659302 C32.95871005 46.45073769 33.54267475 47.92443229 34.1277771 49.39767456 C34.94826571 51.46549979 35.76399716 53.53513229 36.578125 55.60546875 C37.04637695 56.79293701 37.51462891 57.98040527 37.99707031 59.20385742 C39 62 39 62 39 64 C34.71 64 30.42 64 26 64 C25.16301614 61.54285453 24.33027576 59.08441143 23.5 56.625 C23.26152344 55.92632812 23.02304687 55.22765625 22.77734375 54.5078125 C21 49.2265625 21 49.2265625 21 47 C11.76 47 2.52 47 -7 47 C-7.33 48.65 -7.66 50.3 -8 52 C-9.25815529 56.0271075 -10.63930804 60.00571069 -12 64 C-16.29 64 -20.58 64 -25 64 C-17.03342937 42.53451801 -8.90269217 21.09687263 0 0 Z " fill="#10CF9C" transform="translate(830,392)"/>
<path d="M0 0 C6.6 0 13.2 0 20 0 C20 28.05 20 56.1 20 85 C13.4 85 6.8 85 0 85 C0 56.95 0 28.9 0 0 Z " fill="#FCFCFC" transform="translate(688,281)"/>
<path d="M0 0 C4.434375 -0.0825 8.86875 -0.165 13.4375 -0.25 C15.50729126 -0.30462402 15.50729126 -0.30462402 17.61889648 -0.36035156 C24.8569225 -0.42523374 30.81833026 -0.0276134 37 4 C41.42109706 8.42109706 43.09184611 12.63974513 43.375 18.8125 C43.23022381 25.28882168 41.18800995 29.86809287 36.5625 34.375 C31.68388493 37.4687559 27.94728037 38.24623155 22.16796875 38.1953125 C21.00289795 38.19031738 19.83782715 38.18532227 18.63745117 38.18017578 C16.43472534 38.15286377 16.43472534 38.15286377 14.1875 38.125 C9.505625 38.08375 4.82375 38.0425 0 38 C0 25.46 0 12.92 0 0 Z " fill="#121212" transform="translate(142,271)"/>
<path d="M0 0 C6.69410176 5.93340837 6.69410176 5.93340837 7.3359375 10.26953125 C7.42478902 16.05376537 6.97335819 19.4747865 3 24 C0.34200077 26.41636294 -0.35294333 27 -4 27 C-3.505 41.355 -3.505 41.355 -3 56 C-7 56 -7 56 -10 54 C-11.32 54 -12.64 54 -14 54 C-14.94808054 50.86169887 -15.03859194 48.23659241 -14.8515625 44.97265625 C-14.81675781 44.01552734 -14.78195312 43.05839844 -14.74609375 42.07226562 C-14.66547804 40.06857522 -14.56136003 38.06569022 -14.43359375 36.06445312 C-14.10849229 30.7718568 -14.10849229 30.7718568 -16.51464844 26.33544922 C-18.37350732 25.03861283 -18.37350732 25.03861283 -20.32324219 23.96899414 C-22.57578607 22.66725467 -23.28154742 21.48105625 -24 19 C-24.67396904 13.81200573 -24.61418948 9.35121685 -22.4375 4.5625 C-15.9517101 -2.25589451 -8.89531996 -4.06090694 0 0 Z " fill="#10D3A0" transform="translate(482,44)"/>
<path d="M0 0 C3.96 0 7.92 0 12 0 C12 21.12 12 42.24 12 64 C8.04 64 4.08 64 0 64 C0 42.88 0 21.76 0 0 Z " fill="#0FD39F" transform="translate(886,392)"/>
<path d="M0 0 C1.74120117 0.02030273 1.74120117 0.02030273 3.51757812 0.04101562 C6.36637052 0.0761859 9.21418844 0.12540713 12.0625 0.1875 C12.09633226 2.11706663 12.12053232 4.04680389 12.140625 5.9765625 C12.16237793 7.58845459 12.16237793 7.58845459 12.18457031 9.23291016 C12.00673668 13.53719543 11.19482527 15.19755315 8.0625 18.1875 C0.44155181 23.29968885 -6.769131 25.74863642 -15.9375 24.1875 C-19.45918723 22.9705819 -22.02176728 21.34211952 -24.375 18.375 C-25.22247616 15.07925939 -25.34748755 12.58453973 -24.9375 9.1875 C-18.83880086 -0.42257137 -10.53371333 -0.23355021 0 0 Z " fill="#121212" transform="translate(253.9375,327.8125)"/>
<path d="M0 0 C4.60661572 2.36578457 6.98622834 5.2342681 9.25 9.875 C10 12.3125 10 12.3125 10 16.3125 C-3.86 16.3125 -17.72 16.3125 -32 16.3125 C-30.48062656 8.71563278 -27.99428196 4.50241793 -21.68359375 0.2578125 C-15.31985586 -3.31533035 -6.57566334 -2.70891114 0 0 Z " fill="#121212" transform="translate(445,297.6875)"/>
<path d="M0 0 C3.88644402 3.22492164 5.83666901 5.26869148 6.3125 10.3125 C5.9475203 14.61926041 5.06016472 16.02483986 2 19 C-1.48664451 21.52481154 -4.79751118 21.43474022 -9 21 C-12.70390021 18.97333762 -14.65363011 17.51955484 -17 14 C-17.43100612 10.73666796 -17.69474305 8.21787627 -16.01953125 5.28125 C-11.39475909 -0.52461781 -7.25388387 -2.27403502 0 0 Z " fill="#F8F8F8" transform="translate(703,250)"/>
<path d="M0 0 C2.17985854 3.26978781 2.20558991 3.91513144 1.984375 7.640625 C1.95085937 8.54683594 1.91734375 9.45304687 1.8828125 10.38671875 C1.79495723 12.28077493 1.69103828 14.17416085 1.5703125 16.06640625 C1.41826011 20.95281724 1.52139899 24.10117786 4.74609375 27.93359375 C5.80305679 28.98431918 6.8860668 30.00987495 8 31 C9.13888672 32.06154297 9.13888672 32.06154297 10.30078125 33.14453125 C10.96464844 33.69496094 11.62851562 34.24539062 12.3125 34.8125 C15.89885808 37.79771615 15.89885808 37.79771615 17 40 C13.03305794 38.34231648 10.03447152 35.65294946 6.875 32.8125 C6.33746094 32.35552734 5.79992187 31.89855469 5.24609375 31.42773438 C1.33975574 27.91592676 0.03850589 25.14765572 -1 20 C-2.65 19.67 -4.3 19.34 -6 19 C-6.1579682 23.82835664 -6.20214977 28.22891937 -3.42041016 32.32714844 C-1.31111511 34.48372341 0.87357006 36.43999292 3.1875 38.375 C4.32155273 39.38240234 4.32155273 39.38240234 5.47851562 40.41015625 C7.62681034 42.30691602 9.80185751 44.16134314 12 46 C12.91257568 46.88469971 13.82515137 47.76939941 14.76538086 48.6809082 C18.60314876 51.4324334 21.46692885 51.73217243 26.0234375 51.70703125 C27.14270126 51.72971321 27.14270126 51.72971321 28.28457642 51.75285339 C30.64836252 51.79555562 33.01086748 51.8045505 35.375 51.8125 C36.98571073 51.83565822 38.59639129 51.86102632 40.20703125 51.88867188 C44.13813319 51.9513503 48.06844285 51.98382206 52 52 C52 52.33 52 52.66 52 53 C17.63894064 55.37021185 17.63894064 55.37021185 9.93505859 48.703125 C7.85232383 46.43674857 5.94828479 44.11848646 4.18017578 41.59863281 C2.49256716 39.3126458 0.44158454 37.60388215 -1.75 35.8125 C-6.95368704 31.34411657 -6.95368704 31.34411657 -7.27124023 28.98461914 C-7.28356689 28.17629639 -7.29589355 27.36797363 -7.30859375 26.53515625 C-7.33373047 25.65279297 -7.35886719 24.77042969 -7.38476562 23.86132812 C-7.41984699 21.9994172 -7.4511135 20.13743039 -7.47851562 18.27539062 C-7.50494141 17.39173828 -7.53136719 16.50808594 -7.55859375 15.59765625 C-7.57204834 14.78820557 -7.58550293 13.97875488 -7.59936523 13.14477539 C-8.08948304 10.52095763 -9.11344619 9.80353161 -11 8 C-10.87062487 4.8949968 -10.43847574 2.75515266 -8.875 0.0625 C-5.77094169 -1.69646638 -3.33679452 -0.84936588 0 0 Z " fill="#0EDDA9" transform="translate(445,69)"/>
<path d="M0 0 C0.84175781 -0.00257813 1.68351563 -0.00515625 2.55078125 -0.0078125 C3.87142578 0.00378906 3.87142578 0.00378906 5.21875 0.015625 C6.09917969 0.00789063 6.97960937 0.00015625 7.88671875 -0.0078125 C8.72847656 -0.00523437 9.57023438 -0.00265625 10.4375 0 C11.59668945 0.00338379 11.59668945 0.00338379 12.77929688 0.00683594 C14.71875 0.265625 14.71875 0.265625 16.71875 2.265625 C17.11639263 4.25383813 17.45650349 6.25506839 17.71875 8.265625 C19.03875 7.605625 20.35875 6.945625 21.71875 6.265625 C20.74308888 7.43522487 19.763125 8.60123677 18.78125 9.765625 C18.23597656 10.4153125 17.69070313 11.065 17.12890625 11.734375 C16.66355469 12.2396875 16.19820312 12.745 15.71875 13.265625 C15.38875 13.265625 15.05875 13.265625 14.71875 13.265625 C14.71875 9.635625 14.71875 6.005625 14.71875 2.265625 C8.44875 2.265625 2.17875 2.265625 -4.28125 2.265625 C-4.28125 30.315625 -4.28125 58.365625 -4.28125 87.265625 C2.31875 87.265625 8.91875 87.265625 15.71875 87.265625 C15.71875 71.095625 15.71875 54.925625 15.71875 38.265625 C16.04875 38.265625 16.37875 38.265625 16.71875 38.265625 C16.71875 54.765625 16.71875 71.265625 16.71875 88.265625 C9.45875 88.265625 2.19875 88.265625 -5.28125 88.265625 C-6.50973968 84.58015595 -6.42879559 81.17545745 -6.42651367 77.33764648 C-6.43155159 76.12748871 -6.43155159 76.12748871 -6.43669128 74.8928833 C-6.44619641 72.22414617 -6.44814394 69.55547176 -6.44921875 66.88671875 C-6.45243079 65.03491693 -6.45579482 63.18311537 -6.45930481 61.33131409 C-6.46529438 57.45011811 -6.4671448 53.56894441 -6.46655273 49.68774414 C-6.46645093 44.70511082 -6.48012299 39.72261942 -6.49732494 34.7400198 C-6.50841944 30.9165633 -6.51047276 27.09314144 -6.50994301 23.26967049 C-6.51112622 21.43199231 -6.51556697 19.59431332 -6.52327538 17.75665092 C-6.53302729 15.19240096 -6.53021678 12.62846354 -6.52416992 10.06420898 C-6.52978943 9.30000137 -6.53540894 8.53579376 -6.54119873 7.74842834 C-6.50730534 2.11805623 -5.82339934 0.01699908 0 0 Z " fill="#030202" transform="translate(727.28125,278.734375)"/>
<path d="M0 0 C7.77784995 -0.07593214 15.55560468 -0.12855012 23.33374023 -0.16479492 C25.98091199 -0.1799012 28.62805864 -0.2003873 31.27514648 -0.22631836 C35.07542101 -0.26261991 38.87536526 -0.27970803 42.67578125 -0.29296875 C44.45714226 -0.31619453 44.45714226 -0.31619453 46.27449036 -0.33988953 C47.37540512 -0.34011612 48.47631989 -0.34034271 49.6105957 -0.34057617 C51.06620659 -0.35056892 51.06620659 -0.35056892 52.55122375 -0.36076355 C55 0 55 0 58 3 C39.19 3 20.38 3 1 3 C1 35.34 1 67.68 1 101 C0.67 101 0.34 101 0 101 C-0.15363306 88.12660873 -0.3018149 75.25316751 -0.4429636 62.37963295 C-0.50867165 56.40246765 -0.57628448 50.42533635 -0.64819336 44.44824219 C-0.71747078 38.68412925 -0.78181935 32.91998075 -0.84269524 27.15577316 C-0.8668416 24.95244714 -0.89278876 22.74914012 -0.92053413 20.54585648 C-0.95897893 17.46891504 -0.99112202 14.39196936 -1.02172852 11.31494141 C-1.03467453 10.39640884 -1.04762054 9.47787628 -1.06095886 8.5315094 C-1.11405216 2.22810432 -1.11405216 2.22810432 0 0 Z " fill="#1E1E1E" transform="translate(121,250)"/>
<path d="M0 0 C0.66 0 1.32 0 2 0 C3.31281656 3.7707232 4.62519896 7.54159736 5.9375 11.3125 C6.31068359 12.38435547 6.68386719 13.45621094 7.06835938 14.56054688 C7.60493164 16.10258789 7.60493164 16.10258789 8.15234375 17.67578125 C8.48226318 18.62364502 8.81218262 19.57150879 9.15209961 20.5480957 C9.77922493 22.36157673 10.39320518 24.17961553 11 26 C4.4 26 -2.2 26 -9 26 C-6.03 17.42 -3.06 8.84 0 0 Z " fill="#121110" transform="translate(836,403)"/>
<path d="M0 0 C2.30039124 3.45058686 2.4738275 5.94095502 3 10 C3.33 10.33 3.66 10.66 4 11 C4.09887792 12.74382535 4.12799032 14.49165543 4.12939453 16.23828125 C4.13254669 17.35614014 4.13569885 18.47399902 4.13894653 19.62573242 C4.1369223 20.84236572 4.13489807 22.05899902 4.1328125 23.3125 C4.13424759 25.17128784 4.13424759 25.17128784 4.13571167 27.06762695 C4.13639374 29.69388281 4.13503538 32.32004633 4.13037109 34.94628906 C4.12467381 38.31928714 4.12795302 41.69220565 4.13394356 45.06520081 C4.1384177 48.27263677 4.13528882 51.480063 4.1328125 54.6875 C4.13483673 55.9041333 4.13686096 57.1207666 4.13894653 58.37426758 C4.13579437 59.49212646 4.13264221 60.60998535 4.12939453 61.76171875 C4.12859894 62.75131592 4.12780334 63.74091309 4.12698364 64.76049805 C4 67 4 67 3 68 C-4.26 68 -11.52 68 -19 68 C-19 50.84 -19 33.68 -19 16 C-18.67 16 -18.34 16 -18 16 C-18 32.83 -18 49.66 -18 67 C-11.73 67 -5.46 67 1 67 C0.505 33.835 0.505 33.835 0 0 Z " fill="#1F1F1F" transform="translate(801,299)"/>
<path d="M0 0 C3.13152248 1.42150009 5.58143518 3.13564224 8.1875 5.375 C8.88230469 5.96023437 9.57710938 6.54546875 10.29296875 7.1484375 C12.14736799 9.15984537 12.75674081 10.29097723 13 13 C11.5625 15.25 11.5625 15.25 10 17 C11.98 17.33 13.96 17.66 16 18 C14.39435789 21.67127899 12.110728 24.48705241 9.5625 27.5625 C8.78003906 28.51253906 7.99757813 29.46257812 7.19140625 30.44140625 C3.61718396 34.61451783 3.61718396 34.61451783 2 36 C0.0625 35.75 0.0625 35.75 -2 35 C-3.11375 34.7215625 -3.11375 34.7215625 -4.25 34.4375 C-4.8275 34.293125 -5.405 34.14875 -6 34 C-6.33 32.35 -6.66 30.7 -7 29 C-6.13117188 28.64292969 -5.26234375 28.28585938 -4.3671875 27.91796875 C-0.31005465 25.60700329 1.9990357 22.91917806 4.875 19.3125 C5.37257813 18.70599609 5.87015625 18.09949219 6.3828125 17.47460938 C7.59795578 15.99073248 8.80031597 14.49640304 10 13 C8.52660352 9.54915034 6.57627385 7.39274904 3.875 4.8125 C2.56722665 3.55824763 1.270906 2.29159517 0 1 C0 0.67 0 0.34 0 0 Z " fill="#0FD3A1" transform="translate(444,139)"/>
<path d="M0 0 C13.86 0 27.72 0 42 0 C42 29.37 42 58.74 42 89 C34.41 89.33 26.82 89.66 19 90 C19 89.34 19 88.68 19 88 C29.395 87.505 29.395 87.505 40 87 C39.98839844 83.88046875 39.97679687 80.7609375 39.96484375 77.546875 C39.8928946 52.34467483 40.08509835 27.18656117 41 2 C39.38653687 2.00870117 39.38653687 2.00870117 37.74047852 2.01757812 C28.79172123 2.05104562 19.87825193 1.9254763 10.9375 1.5 C9.86951172 1.45230469 8.80152344 1.40460937 7.70117188 1.35546875 C5.13394098 1.24034629 2.56691737 1.12187914 0 1 C0 0.67 0 0.34 0 0 Z " fill="#120504" transform="translate(461,24)"/>
<path d="M0 0 C5.53588533 -0.02464775 11.071739 -0.04283496 16.60766602 -0.05493164 C18.4924373 -0.05997244 20.37720465 -0.06680498 22.26196289 -0.07543945 C24.96501636 -0.08751617 27.66801831 -0.09323068 30.37109375 -0.09765625 C31.21900986 -0.10281754 32.06692596 -0.10797882 32.9405365 -0.11329651 C34.96071068 -0.11349195 36.98077934 -0.06206211 39 0 C40.85898062 1.85898062 40.12777665 4.94960197 40.12939453 7.43164062 C40.13114685 8.10317673 40.13289917 8.77471283 40.13470459 9.46659851 C40.1391223 11.69650828 40.13618542 13.92633936 40.1328125 16.15625 C40.13348556 17.69942236 40.13445561 19.24259461 40.13571167 20.7857666 C40.13718853 24.0240174 40.13503447 27.26224067 40.13037109 30.50048828 C40.1246738 34.66042523 40.12795287 38.82029766 40.13394356 42.98023224 C40.13754949 46.16799408 40.13641044 49.35574051 40.13381577 52.54350281 C40.13314658 54.07777412 40.13397461 55.61204682 40.13629532 57.14631653 C40.13882238 59.28703541 40.13498054 61.42764842 40.12939453 63.56835938 C40.12859894 64.78890015 40.12780334 66.00944092 40.12698364 67.26696777 C40 70 40 70 39 71 C37.07332493 71.08748207 35.14348139 71.10697334 33.21484375 71.09765625 C31.46010742 71.09282227 31.46010742 71.09282227 29.66992188 71.08789062 C28.43822266 71.07951172 27.20652344 71.07113281 25.9375 71.0625 C24.08415039 71.05573242 24.08415039 71.05573242 22.19335938 71.04882812 C19.12885883 71.03699608 16.06445279 71.02051173 13 71 C13 70.67 13 70.34 13 70 C21.25 70 29.5 70 38 70 C38 47.56 38 25.12 38 2 C32.39 2 26.78 2 21 2 C17.13851785 1.86493254 13.2932964 1.71405021 9.4375 1.5 C8.51259766 1.45230469 7.58769531 1.40460938 6.63476562 1.35546875 C4.42294016 1.24086639 2.21140286 1.12243962 0 1 C0 0.67 0 0.34 0 0 Z " fill="#0CE4AB" transform="translate(465,151)"/>
<path d="M0 0 C2.4375 1.5625 2.4375 1.5625 4 4 C4.5625 7.4375 4.5625 7.4375 4 11 C1.52506641 14.42123173 0.11736219 15.79477021 -4.0625 16.5625 C-7.74345769 15.85763576 -8.87000351 15.0766616 -11 12 C-12.0625 8.5625 -12.0625 8.5625 -12 5 C-8.6643553 0.10077185 -5.80969012 -0.95067657 0 0 Z " fill="#11CF9D" transform="translate(480,177)"/>
<path d="M0 0 C0.66 0 1.32 0 2 0 C2 24.75 2 49.5 2 75 C1.01 75 0.02 75 -1 75 C-1 52.89 -1 30.78 -1 8 C-1.99 7.67 -2.98 7.34 -4 7 C-2.68 4.69 -1.36 2.38 0 0 Z " fill="#212121" transform="translate(647,291)"/>
<path d="M0 0 C4.35680814 2.21950603 7.39707297 4.8545977 10 9 C10.75 12.8125 10.75 12.8125 11 16 C11.57234375 15.75378906 12.1446875 15.50757813 12.734375 15.25390625 C15 15 15 15 17.140625 16.65234375 C17.83671875 17.40644531 18.5328125 18.16054687 19.25 18.9375 C19.95640625 19.68902344 20.6628125 20.44054687 21.390625 21.21484375 C21.92171875 21.80394531 22.4528125 22.39304688 23 23 C22.01 23 21.02 23 20 23 C19.21625 22.195625 18.4325 21.39125 17.625 20.5625 C15.30061103 17.78743861 15.30061103 17.78743861 12.46875 17.64453125 C11.6540625 17.43183594 10.839375 17.21914062 10 17 C8.7421875 14.8203125 8.7421875 14.8203125 7.875 12.125 C6.3776212 7.4134049 6.3776212 7.4134049 3 4 C0.04478923 3.20531949 0.04478923 3.20531949 -3.1875 2.8125 C-4.81751953 2.57466797 -4.81751953 2.57466797 -6.48046875 2.33203125 C-7.72763672 2.16767578 -7.72763672 2.16767578 -9 2 C-9.33 3.65 -9.66 5.3 -10 7 C-10.66 7 -11.32 7 -12 7 C-11.67 7.99 -11.34 8.98 -11 10 C-10.649375 9.505 -10.29875 9.01 -9.9375 8.5 C-8 7 -8 7 -4.5625 6.5 C-1 7 -1 7 1.5 9.3125 C1.995 10.199375 2.49 11.08625 3 12 C2.67 12.99 2.34 13.98 2 15 C0.68 13.02 -0.64 11.04 -2 9 C-5.81813447 9.27540704 -5.81813447 9.27540704 -9 11 C-9.14636054 14.36629251 -9.07193479 16.78419562 -8 20 C-8.99 19.67 -9.98 19.34 -11 19 C-11.309375 18.195625 -11.61875 17.39125 -11.9375 16.5625 C-12.76608159 13.85842507 -12.76608159 13.85842507 -15.125 12.6875 C-15.74375 12.460625 -16.3625 12.23375 -17 12 C-17.66 13.65 -18.32 15.3 -19 17 C-19.33 17 -19.66 17 -20 17 C-20.32289152 12.96385598 -20.23629571 10.48204325 -18.4375 6.8125 C-13.25761051 0.83570443 -7.78980834 -1.40728289 0 0 Z " fill="#0EDDA9" transform="translate(433,114)"/>
<path d="M0 0 C6.6 0 13.2 0 20 0 C19.67 0.66 19.34 1.32 19 2 C13.39 2 7.78 2 2 2 C2 13.22 2 24.44 2 36 C10.91 35.67 19.82 35.34 29 35 C29 35.99 29 36.98 29 38 C19.43 38 9.86 38 0 38 C0 25.46 0 12.92 0 0 Z " fill="#060606" transform="translate(142,271)"/>
<path d="M0 0 C12.54 0 25.08 0 38 0 C38 22.44 38 44.88 38 68 C33.38 68 28.76 68 24 68 C24 67.34 24 66.68 24 66 C27.96 66 31.92 66 36 66 C36 44.88 36 23.76 36 2 C30.72 2 25.44 2 20 2 C16.32582875 1.8646358 12.66831618 1.71340833 9 1.5 C8.11828125 1.45230469 7.2365625 1.40460938 6.328125 1.35546875 C4.2185379 1.24081728 2.10923125 1.12102147 0 1 C0 0.67 0 0.34 0 0 Z " fill="#130303" transform="translate(465,153)"/>
<path d="M0 0 C2.31 0 4.62 0 7 0 C7 7.26 7 14.52 7 22 C1.41070869 22.16108205 -4.17048681 22.30026574 -9.76025391 22.38452148 C-11.65962045 22.41964698 -13.55879874 22.46736031 -15.45751953 22.52807617 C-18.19350637 22.61335182 -20.92698578 22.65276453 -23.6640625 22.68359375 C-24.50804596 22.71972275 -25.35202942 22.75585175 -26.22158813 22.79307556 C-29.82698703 22.79545723 -32.0834497 22.7690465 -34.91278076 20.39505005 C-36.41005942 18.65843544 -37.74708337 16.91857108 -39 15 C-36.53199953 16.15173355 -34.95216435 17.04783565 -33 19 C-30.13563176 19.24581843 -27.3609686 19.37369381 -24.4921875 19.4140625 C-23.23125778 19.44311172 -23.23125778 19.44311172 -21.94485474 19.4727478 C-19.25500697 19.53261658 -16.56511657 19.57895771 -13.875 19.625 C-12.05336656 19.6631731 -10.2317513 19.70222444 -8.41015625 19.7421875 C-3.94019776 19.83998058 0.52956277 19.91948976 5 20 C5 13.73 5 7.46 5 1 C3.35 1 1.7 1 0 1 C0 0.67 0 0.34 0 0 Z " fill="#102C20" transform="translate(496,122)"/>
<path d="M0 0 C3.0625 0.3125 3.0625 0.3125 4.9375 1.4375 C6.59104531 4.19340884 6.45615568 6.16325452 6.0625 9.3125 C5 11.25 5 11.25 3.0625 12.3125 C-0.5 12.1875 -0.5 12.1875 -3.9375 11.3125 C-5.9375 8.3125 -5.9375 8.3125 -5.6875 5.25 C-4.69210355 1.35136391 -4.04786381 0.43062381 0 0 Z " fill="#141512" transform="translate(472.9375,50.6875)"/>
<path d="M0 0 C2.2623963 2.14860714 4.07029758 4.39628388 5.875 6.9375 C9.54093204 11.8797195 13.67398921 14.95656526 19 18 C18.01 18.33 17.02 18.66 16 19 C15.34 18.67 14.68 18.34 14 18 C14 20.31 14 22.62 14 25 C14.66 25.33 15.32 25.66 16 26 C10.6410091 25.66506307 6.89256144 22.42872819 3 19 C2.67 18.34 2.34 17.68 2 17 C2.99 17 3.98 17 5 17 C5.33 16.34 5.66 15.68 6 15 C6.99 14.67 7.98 14.34 9 14 C8.51789063 13.49210938 8.03578125 12.98421875 7.5390625 12.4609375 C3.90293471 8.49830028 1.21237017 5.38831189 0 0 Z " fill="#11DBA8" transform="translate(417,173)"/>
<path d="M0 0 C-3.62530214 3.62530214 -9.56955588 3.04745459 -14.5 3.09765625 C-16.0000316 3.09113437 -17.5000494 3.07939719 -19 3.0625 C-19.77472656 3.05798828 -20.54945313 3.05347656 -21.34765625 3.04882812 C-23.23180524 3.03719758 -25.11591365 3.01926906 -27 3 C-27 4.65 -27 6.3 -27 8 C-18.42 8 -9.84 8 -1 8 C-4.96620798 9.98310399 -6.39142288 10.24051678 -10.640625 10.1953125 C-11.71054687 10.18886719 -12.78046875 10.18242187 -13.8828125 10.17578125 C-14.99398437 10.15902344 -16.10515625 10.14226562 -17.25 10.125 C-18.37664063 10.11597656 -19.50328125 10.10695312 -20.6640625 10.09765625 C-23.44292365 10.07410658 -26.2213539 10.0412168 -29 10 C-29 7.03 -29 4.06 -29 1 C-25.10423907 0.83161213 -21.20838071 0.66559171 -17.3125 0.5 C-16.20970703 0.45230469 -15.10691406 0.40460938 -13.97070312 0.35546875 C-12.90400391 0.31035156 -11.83730469 0.26523438 -10.73828125 0.21875 C-9.26935425 0.1559082 -9.26935425 0.1559082 -7.77075195 0.09179688 C-5.1778941 0.00589375 -2.59402311 -0.016562 0 0 Z " fill="#0CE2AB" transform="translate(554,152)"/>
<path d="M0 0 C2 2 2 2 2.3125 4.9375 C2 8 2 8 0.9375 9.9375 C-2.18142449 11.64787795 -4.65557801 10.80513863 -8 10 C-9.41441874 7.17116253 -9.31900332 5.12623255 -9 2 C-6.12524616 -1.3006433 -4.03854228 -1.38160657 0 0 Z " fill="#13100F" transform="translate(432,123)"/>
<path d="M0 0 C1.794375 0.2165625 1.794375 0.2165625 3.625 0.4375 C10.06737585 1.1590461 16.53295884 1.56763736 23 2 C21.29171079 4.10633718 20.47851584 4.93801608 17.73828125 5.29296875 C16.93777344 5.25816406 16.13726562 5.22335938 15.3125 5.1875 C14.50425781 5.16042969 13.69601562 5.13335937 12.86328125 5.10546875 C12.24839844 5.07066406 11.63351562 5.03585938 11 5 C11.33 6.32 11.66 7.64 12 9 C8.37 9 4.74 9 1 9 C-1.125 2.25 -1.125 2.25 0 0 Z " fill="#11C796" transform="translate(431,191)"/>
<path d="M0 0 C1.4375 1.0625 1.4375 1.0625 3 3 C3.495 6.465 3.495 6.465 4 10 C-9.86 10 -23.72 10 -38 10 C-37.67 8.35 -37.34 6.7 -37 5 C-36.34 4.67 -35.68 4.34 -35 4 C-35.33 5.32 -35.66 6.64 -36 8 C-23.46 8 -10.92 8 2 8 C1.34 5.36 0.68 2.72 0 0 Z " fill="#050404" transform="translate(451,304)"/>
<path d="M0 0 C2.125 1.9375 2.125 1.9375 4 4 C4 4.66 4 5.32 4 6 C3.34 6 2.68 6 2 6 C2 6.66 2 7.32 2 8 C0.68 8.33 -0.64 8.66 -2 9 C-2 8.34 -2 7.68 -2 7 C-5.3 6.67 -8.6 6.34 -12 6 C-11.67 5.34 -11.34 4.68 -11 4 C-9.68 4 -8.36 4 -7 4 C-7 3.34 -7 2.68 -7 2 C-8.32 1.34 -9.64 0.68 -11 0 C-9.54263913 -0.19491452 -8.08405407 -0.38069358 -6.625 -0.5625 C-5.81289063 -0.66691406 -5.00078125 -0.77132812 -4.1640625 -0.87890625 C-2 -1 -2 -1 0 0 Z " fill="#13C998" transform="translate(481,44)"/>
<path d="M0 0 C5.61 0 11.22 0 17 0 C17 0.33 17 0.66 17 1 C15.865625 1.12375 14.73125 1.2475 13.5625 1.375 C11.7990625 1.684375 11.7990625 1.684375 10 2 C9.67 2.66 9.34 3.32 9 4 C13.62 4 18.24 4 23 4 C23 4.33 23 4.66 23 5 C15.41 5 7.82 5 0 5 C0 3.35 0 1.7 0 0 Z " fill="#0FC493" transform="translate(527,155)"/>
<path d="M0 0 C1.5 1.1875 1.5 1.1875 3 3 C3.1875 5.6875 3.1875 5.6875 3 8 C3.66 8 4.32 8 5 8 C5.02685412 10.31243792 5.04632841 12.6249627 5.0625 14.9375 C5.07410156 16.22527344 5.08570313 17.51304687 5.09765625 18.83984375 C5 22 5 22 4 23 C4.33 23 4.66 23 5 23 C5 24.65 5 26.3 5 28 C3.68 27.34 2.36 26.68 1 26 C1.00523682 25.39003174 1.01047363 24.78006348 1.01586914 24.15161133 C1.03673335 21.37191815 1.04969013 18.59224149 1.0625 15.8125 C1.07087891 14.85279297 1.07925781 13.89308594 1.08789062 12.90429688 C1.09111328 11.97294922 1.09433594 11.04160156 1.09765625 10.08203125 C1.10289307 9.22843018 1.10812988 8.3748291 1.11352539 7.49536133 C0.99579323 4.90753253 0.57107044 2.52338047 0 0 Z " fill="#202020" transform="translate(204,275)"/>
<path d="M0 0 C3.35407832 2.71520626 4.6551394 5.96541819 6 10 C5.8424627 14.64735028 5.17082049 17.55345599 2 21 C1.5359375 19.824375 1.5359375 19.824375 1.0625 18.625 C0.07124962 16.07669872 0.07124962 16.07669872 -1 14 C-0.484375 13.13375 0.03125 12.2675 0.5625 11.375 C2.53251334 6.74975128 1.53728872 4.69277609 0 0 Z " fill="#11C895" transform="translate(593,55)"/>
<path d="M0 0 C2.33524782 2.25740623 4.18705073 4.2805761 6 7 C7.32 6.67 8.64 6.34 10 6 C12.20408163 11.3877551 12.20408163 11.3877551 11.25 14.25 C10 16 10 16 8 18 C6.66180502 15.3773768 5.3292849 12.75213401 4 10.125 C3.6184375 9.37863281 3.236875 8.63226563 2.84375 7.86328125 C2.4828125 7.14785156 2.121875 6.43242188 1.75 5.6953125 C1.41484375 5.03547363 1.0796875 4.37563477 0.734375 3.69580078 C0 2 0 2 0 0 Z " fill="#0FD9A6" transform="translate(584,51)"/>
<path d="M0 0 C4.875 0.875 4.875 0.875 6 2 C6.08748207 3.92667507 6.10697334 5.85651861 6.09765625 7.78515625 C6.09443359 8.95498047 6.09121094 10.12480469 6.08789062 11.33007812 C6.07951172 12.56177734 6.07113281 13.79347656 6.0625 15.0625 C6.05798828 16.29806641 6.05347656 17.53363281 6.04882812 18.80664062 C6.03699608 21.87114117 6.02051173 24.93554721 6 28 C5.34 28.33 4.68 28.66 4 29 C2.70772969 23.31401066 3.09757726 17.89196518 3.4375 12.125 C3.48970703 11.15046875 3.54191406 10.1759375 3.59570312 9.171875 C3.72463008 6.78086598 3.85955944 4.39035574 4 2 C2.68 1.34 1.36 0.68 0 0 Z " fill="#140707" transform="translate(462,70)"/>
<path d="M0 0 C0.86625 0.4640625 0.86625 0.4640625 1.75 0.9375 C5.4751107 2.69658005 8.88878676 3.14159456 12.984375 3.31640625 C14.38623047 3.37924805 14.38623047 3.37924805 15.81640625 3.44335938 C16.78449219 3.48267578 17.75257813 3.52199219 18.75 3.5625 C19.73355469 3.60568359 20.71710938 3.64886719 21.73046875 3.69335938 C24.15351275 3.79922052 26.5766554 3.90130171 29 4 C29 4.33 29 4.66 29 5 C25.77211225 5.36653013 22.54259638 5.71601907 19.3125 6.0625 C18.40048828 6.16626953 17.48847656 6.27003906 16.54882812 6.37695312 C15.21948242 6.51713867 15.21948242 6.51713867 13.86328125 6.66015625 C13.05157471 6.74918213 12.23986816 6.83820801 11.40356445 6.92993164 C7.38984209 7.04693909 4.79391897 6.66517535 1.6875 4.0625 C0 2 0 2 0 0 Z " fill="#0DE1AD" transform="translate(463,110)"/>
<path d="M0 0 C2.64 0 5.28 0 8 0 C7.34 1.98 6.68 3.96 6 6 C6.66 6 7.32 6 8 6 C7.67 6.66 7.34 7.32 7 8 C6.154375 7.67 5.30875 7.34 4.4375 7 C0.79010784 5.93894046 -2.22274664 5.84890987 -6 6 C-5.34 5.34 -4.68 4.68 -4 4 C-2.68 4 -1.36 4 0 4 C0 2.68 0 1.36 0 0 Z " fill="#11C996" transform="translate(554,25)"/>
<path d="M0 0 C4.95 0 9.9 0 15 0 C14.67 0.99 14.34 1.98 14 3 C9.71 3 5.42 3 1 3 C1 3.99 1 4.98 1 6 C1.99 6.33 2.98 6.66 4 7 C2.35 7 0.7 7 -1 7 C-0.67 4.69 -0.34 2.38 0 0 Z " fill="#0DBE8E" transform="translate(527,20)"/>
<path d="M0 0 C0 0.99 0 1.98 0 3 C-3.33333333 6 -3.33333333 6 -6 6 C-6 6.66 -6 7.32 -6 8 C-3.22174544 9.28776153 -3.22174544 9.28776153 0 10 C2.38305196 8.75651531 2.38305196 8.75651531 4 7 C2.55540356 10.73187415 2.55540356 10.73187415 0.1875 11.875 C-2.78036312 12.04459218 -4.44556816 11.51885137 -7 10 C-7.8125 7.375 -7.8125 7.375 -8 5 C-7.05125 4.54625 -6.1025 4.0925 -5.125 3.625 C-1.99686321 2.19761746 -1.99686321 2.19761746 0 0 Z " fill="#0DEBB6" transform="translate(445,163)"/>
<path d="M0 0 C2.05078125 0.03255208 4.1015625 0.06510417 6.15234375 0.09765625 C5.82234375 1.08765625 5.49234375 2.07765625 5.15234375 3.09765625 C-2.76765625 3.09765625 -10.68765625 3.09765625 -18.84765625 3.09765625 C-19.17765625 3.75765625 -19.50765625 4.41765625 -19.84765625 5.09765625 C-19.84765625 4.10765625 -19.84765625 3.11765625 -19.84765625 2.09765625 C-18.02427734 2.00677734 -18.02427734 2.00677734 -16.1640625 1.9140625 C-14.57941397 1.82967293 -12.99477923 1.74502415 -11.41015625 1.66015625 C-10.60771484 1.62083984 -9.80527344 1.58152344 -8.97851562 1.54101562 C-5.68749526 1.36049552 -2.91584844 0.15411461 0 0 Z " fill="#1D1D1C" transform="translate(163.84765625,270.90234375)"/>
<path d="M0 0 C0.66 0 1.32 0 2 0 C3.04239561 1.19342452 4.03409725 2.43136204 5 3.6875 C8.95122277 8.39054106 13.40091627 10.6567215 19 13 C16.33144232 14.04153868 15.28721669 14.12002389 12.59765625 12.99609375 C7.44782204 9.83001694 3.42561235 7.02423144 0 2 C0 1.34 0 0.68 0 0 Z " fill="#0DDEAB" transform="translate(458,207)"/>
<path d="M0 0 C-0.5775 0.268125 -1.155 0.53625 -1.75 0.8125 C-2.4925 1.204375 -3.235 1.59625 -4 2 C-4.7425 2.37125 -5.485 2.7425 -6.25 3.125 C-8.36836666 5.39467856 -8.25 6.16782821 -8.25 9.1875 C-8.1675 10.445625 -8.085 11.70375 -8 13 C-6.68 13.66 -5.36 14.32 -4 15 C-8.56 14.52 -8.56 14.52 -10.375 12.375 C-11.282013 8.92835062 -10.87410392 6.43397967 -10 3 C-7.04030655 -0.39816655 -4.33779596 -0.29575882 0 0 Z " fill="#0CE3B1" transform="translate(479,177)"/>
<path d="M0 0 C5.11749154 4.91279188 9.80221592 10.28386848 14 16 C13.34 16.66 12.68 17.32 12 18 C0 3.26213592 0 3.26213592 0 0 Z " fill="#0CD9A7" transform="translate(401,138)"/>
<path d="M0 0 C3.17325358 2.62260075 4.28734555 5.64750421 5.75 9.4375 C6.19859375 10.57058594 6.6471875 11.70367187 7.109375 12.87109375 C7.9689772 15.89101199 8.14949552 17.14728855 7 20 C1.62870159 6.3667426 1.62870159 6.3667426 0 0 Z " fill="#0DE1AB" transform="translate(859,433)"/>
<path d="M0 0 C0.66 0 1.32 0 2 0 C2.99 3.63 3.98 7.26 5 11 C4.34 11 3.68 11 3 11 C3 10.01 3 9.02 3 8 C1.35 8 -0.3 8 -2 8 C-1.34 5.36 -0.68 2.72 0 0 Z " fill="#101B15" transform="translate(836,403)"/>
<path d="M0 0 C0.33 0 0.66 0 1 0 C1.05391993 1.79133978 1.09275571 3.58313899 1.125 5.375 C1.14820313 6.37273437 1.17140625 7.37046875 1.1953125 8.3984375 C1 11 1 11 -1 13 C-1.33 10.69 -1.66 8.38 -2 6 C-2.99 6.66 -3.98 7.32 -5 8 C-3.6299034 5.0490227 -2.06764583 2.51713405 0 0 Z " fill="#070706" transform="translate(879,354)"/>
<path d="M0 0 C3.3 0 6.6 0 10 0 C10.33 0.99 10.66 1.98 11 3 C7.04 3 3.08 3 -1 3 C-0.67 2.01 -0.34 1.02 0 0 Z " fill="#242424" transform="translate(239,349)"/>
<path d="M0 0 C1.27351308 2.54702616 0.80191925 3.4282945 0.0625 6.125 C-0.13214844 6.84945313 -0.32679688 7.57390625 -0.52734375 8.3203125 C-0.76130859 9.15175781 -0.76130859 9.15175781 -1 10 C-1.66 10 -2.32 10 -3 10 C-3.66 11.32 -4.32 12.64 -5 14 C-4.46515599 8.65155992 -2.53309233 4.64203897 0 0 Z " fill="#0EE4AE" transform="translate(812,439)"/>
<path d="M0 0 C3.71045247 1.57780923 6.29906384 3.90703248 9.25 6.625 C10.14203125 7.44226563 11.0340625 8.25953125 11.953125 9.1015625 C12.96632813 10.04128906 12.96632813 10.04128906 14 11 C9.89707103 11 8.8472941 9.37198901 5.875 6.625 C4.98554688 5.81289062 4.09609375 5.00078125 3.1796875 4.1640625 C1 2 1 2 0 0 Z " fill="#150907" transform="translate(454,100)"/>
<path d="M0 0 C4 1 4 1 5.25 2.8125 C6 5 6 5 6 9 C5.34 9 4.68 9 4 9 C2.68 6.03 1.36 3.06 0 0 Z " fill="#1C1C1C" transform="translate(589,289)"/>
<path d="M0 0 C1.953125 1.14453125 1.953125 1.14453125 4 3 C4.609375 5.69921875 4.609375 5.69921875 4.75 8.6875 C4.80671875 9.68136719 4.8634375 10.67523438 4.921875 11.69921875 C4.94765625 12.45847656 4.9734375 13.21773438 5 14 C2.81385576 11.81385576 2.31743465 10.46120051 1.375 7.5625 C1.11460937 6.78003906 0.85421875 5.99757813 0.5859375 5.19140625 C0 3 0 3 0 0 Z " fill="#0FE4AF" transform="translate(851,438)"/>
<path d="M0 0 C2.5654594 2.5654594 2.54046087 4.47686668 3 8 C3.66 8 4.32 8 5 8 C5 9.32 5 10.64 5 12 C4.34 12 3.68 12 3 12 C-0.42857143 4.71428571 -0.42857143 4.71428571 0 0 Z " fill="#1D1D1D" transform="translate(577,261)"/>
<path d="M0 0 C1.62490954 -0.02698189 3.24994633 -0.04638757 4.875 -0.0625 C5.77992188 -0.07410156 6.68484375 -0.08570313 7.6171875 -0.09765625 C10 0 10 0 12 1 C12 1.66 12 2.32 12 3 C7.45194365 3.17835515 4.1205746 2.99785435 0 1 C0 0.67 0 0.34 0 0 Z " fill="#1B1B1B" transform="translate(248,298)"/>
<path d="M0 0 C0.66 0.33 1.32 0.66 2 1 C1.01 2.98 0.02 4.96 -1 7 C-1.99 7 -2.98 7 -4 7 C-3.39816251 4.97954558 -2.72693904 2.97888961 -2 1 C-1.34 0.67 -0.68 0.34 0 0 Z " fill="#1B1B1B" transform="translate(639,263)"/>
<path d="M0 0 C0.66 0.33 1.32 0.66 2 1 C2 3.64 2 6.28 2 9 C0.4375 7.3125 0.4375 7.3125 -1 5 C-0.6875 2.25 -0.6875 2.25 0 0 Z " fill="#1B1A1A" transform="translate(230,335)"/>
<path d="M0 0 C2.74277578 3.19990508 4.6302836 6.00499382 6 10 C5.34 10 4.68 10 4 10 C1.1605948 6.32547562 0 4.73113419 0 0 Z " fill="#0B0A0A" transform="translate(567,291)"/>
<path d="M0 0 C1.52299523 2.93720508 2.80100302 5.9168649 4 9 C3.01 9 2.02 9 1 9 C1 8.01 1 7.02 1 6 C0.34 6 -0.32 6 -1 6 C-0.67 4.02 -0.34 2.04 0 0 Z " fill="#1A1A1A" transform="translate(209,347)"/>
<path d="M0 0 C0.66 0.33 1.32 0.66 2 1 C1.1875 2.9375 1.1875 2.9375 0 5 C-0.99 5.33 -1.98 5.66 -3 6 C-2.625 3.5625 -2.625 3.5625 -2 1 C-1.34 0.67 -0.68 0.34 0 0 Z " fill="#191919" transform="translate(239,297)"/>
<path d="M0 0 C2.95409701 1.37154504 5.44008376 2.98863724 8 5 C7.67 5.99 7.34 6.98 7 8 C5.83035398 6.8572081 4.66435444 5.71068285 3.5 4.5625 C2.8503125 3.92441406 2.200625 3.28632813 1.53125 2.62890625 C0 1 0 1 0 0 Z " fill="#1E1E1E" transform="translate(365,284)"/>
</svg>
